<?xml version="1.0" standalone="no"?>
<!DOCTYPE svg PUBLIC "-//W3C//DTD SVG 1.1//EN" "http://www.w3.org/Graphics/SVG/1.1/DTD/svg11.dtd" >
<svg xmlns="http://www.w3.org/2000/svg">
<metadata>
<json>
<![CDATA[
{
	"fontFamily": "Movie-Trip-IconSet-Fill",
	"majorVersion": 1,
	"minorVersion": 1,
	"designerURL": "http://movietripp.com",
	"designer": "MovieTrip",
	"version": "Version 1.1",
	"fontId": "Movie-Trip-IconSet-Fill",
	"psName": "Movie-Trip-IconSet-Fill",
	"subFamily": "Regular",
	"fullName": "Movie-Trip-IconSet-Fill",
	"description": "Font generated by IcoMoon."
}
]]>
</json>
</metadata>
<defs>
<font id="Movie-Trip-IconSet-Fill" horiz-adv-x="1024">
<font-face units-per-em="1024" ascent="960" descent="-64" />
<missing-glyph horiz-adv-x="1024" />
<glyph unicode="&#x20;" horiz-adv-x="512" d="" />
<glyph unicode="&#xe600;" glyph-name="airport" data-tags="airport_color" d="M913.92 555.52c24.32 0 43.52-20.48 43.52-44.8s-20.48-44.8-44.8-44.8h-116.48c-15.36 0-29.44 12.8-29.44 29.44 0 15.36 12.8 29.44 29.44 29.44h14.080c-1.28 5.12-2.56 11.52-2.56 16.64 0 29.44 24.32 53.76 53.76 53.76 25.6 0 46.080-17.92 52.48-39.68zM512 335.36c23.040 0 40.96-19.2 40.96-40.96 0-23.040-19.2-40.96-40.96-40.96-23.040 0-40.96 19.2-40.96 40.96-1.28 21.76 17.92 40.96 40.96 40.96zM302.080 723.2c24.32 0 43.52-20.48 43.52-44.8s-19.2-46.080-44.8-46.080h-188.16c-8.96 0-15.36 6.4-15.36 15.36s6.4 15.36 15.36 15.36h43.52c0 15.36 12.8 29.44 29.44 29.44h14.080c-1.28 5.12-2.56 11.52-2.56 16.64 0 29.44 24.32 53.76 53.76 53.76 24.32 0 44.8-16.64 51.2-39.68z" />
<glyph unicode="&#xe601;" glyph-name="backery" data-tags="backery_color" d="M826.88 369.92v34.56l-33.28 116.48h138.24l92.16-163.84c0-51.2-40.96-93.44-93.44-93.44-28.16 0-52.48 12.8-70.4 32-14.080 16.64-23.040 37.12-23.040 61.44h-23.040c0 7.68 5.12 12.8 12.8 12.8zM616.96 369.92v34.56l-33.28 116.48h209.92l33.28-116.48v-34.56c-6.4 0-11.52-5.12-11.52-11.52v0c0-51.2-40.96-93.44-93.44-93.44-51.2 0-93.44 42.24-93.44 93.44h-23.040c0 6.4 5.12 11.52 11.52 11.52zM440.32 520.96l-33.28-116.48v-34.56c-6.4 0-11.52-5.12-11.52-11.52v0c0-51.2-42.24-93.44-93.44-93.44-28.16 0-52.48 12.8-69.12 32-14.080 16.64-23.040 38.4-23.040 61.44 0 6.4-5.12 11.52-11.52 11.52l7.68 34.56 25.6 116.48h208.64zM407.040 369.92v34.56l33.28 116.48h143.36l33.28-116.48v-34.56c-6.4 0-11.52-5.12-11.52-11.52v0c0-51.2-40.96-93.44-92.16-93.44 0 0 0 0 0 0-28.16 0-52.48 12.8-69.12 32-15.36 16.64-23.040 38.4-23.040 61.44h-23.040c-2.56 6.4 2.56 11.52 8.96 11.52zM230.4 520.96l-25.6-116.48-7.68-34.56c-6.4 0-11.52-5.12-11.52-11.52 0-51.2-42.24-93.44-93.44-93.44s-93.44 42.24-93.44 93.44l93.44 163.84h138.24z" />
<glyph unicode="&#xe602;" glyph-name="bar" data-tags="bar_color" d="M224 857.6c0-24.742-20.058-44.8-44.8-44.8s-44.8 20.058-44.8 44.8c0 24.742 20.058 44.8 44.8 44.8s44.8-20.058 44.8-44.8zM797.44 590.080l-162.56-165.12c-16.64-16.64-26.88-39.68-26.88-64v-366.080h-76.8v364.8c0 25.6-10.24 47.36-26.88 64v0l-162.56 166.4 6.4 6.4c37.12 0 37.12-26.88 74.24-26.88 15.36 0 24.32 5.12 33.28 10.24 10.24 7.68 19.2 15.36 40.96 15.36 37.12 0 37.12-26.88 72.96-26.88 37.12 0 37.12 26.88 74.24 26.88s37.12-26.88 74.24-26.88c37.12 0 37.12 26.88 74.24 26.88l5.12-5.12z" />
<glyph unicode="&#xe603;" d="M985.6 527.36v76.8h-25.6v-76.8h25.6zM1024 693.76v-512h-102.4v510.72h102.4z" />
<glyph unicode="&#xe604;" d="M947.2 739.84h51.2v-46.080h-51.2v46.080z" />
<glyph unicode="&#xe605;" d="M512 631.040v-2.56l-5.12 2.56c1.28 0 2.56 0 5.12 0z" />
<glyph unicode="&#xe606;" d="M256 518.4v0 0z" />
<glyph unicode="&#xe607;" d="M64 527.36v76.8h-25.6v-76.8h25.6zM102.4 284.16v-102.4h-102.4v512h102.4v-409.6z" />
<glyph unicode="&#xe608;" d="M25.6 739.84h51.2v-46.080h-51.2v46.080z" />
<glyph unicode="&#xe609;" glyph-name="building" data-tags="building_color" d="M614.4 57.6h102.4v-51.2h-102.4v51.2zM614.4 492.8h102.4v-89.6h-102.4v89.6zM716.8 723.2v-128h-102.4v128zM627.2 211.2h76.8v-37.12h-76.8v37.12zM627.2 300.8h76.8v-89.6h-76.8v89.6zM460.8 723.2h153.6v-51.2h-153.6v51.2zM358.4 492.8h102.4v-89.6h-102.4v89.6zM460.8 672v-76.8h-102.4v128h102.4zM281.6 659.2v-51.2h-76.8v51.2zM231.68 428.8h49.92v-51.2h-76.8v51.2z" />
<glyph unicode="&#xe60a;" glyph-name="cafe" data-tags="cafe_color" d="M476.16 363.52c5.12 15.36 19.2 26.88 37.12 26.88 16.64 0 32-11.52 37.12-26.88 14.080 7.68 32 5.12 44.8-6.4 11.52-11.52 14.080-30.72 6.4-44.8 15.36-5.12 26.88-19.2 26.88-37.12s-11.52-32-26.88-37.12c7.68-14.080 5.12-33.28-6.4-44.8s-30.72-14.080-44.8-6.4c-5.12-15.36-19.2-26.88-37.12-26.88s-32 11.52-37.12 26.88v0c-14.080-7.68-33.28-5.12-44.8 6.4-12.8 12.8-14.080 30.72-6.4 44.8-15.36 5.12-26.88 19.2-26.88 35.84s11.52 32 26.88 37.12c-7.68 14.080-5.12 33.28 6.4 44.8 11.52 12.8 30.72 15.36 44.8 7.68v0zM513.28 313.6c-15.36 0-29.44-8.96-34.56-23.040-2.56-5.12-3.84-10.24-3.84-15.36s1.28-10.24 2.56-14.080c3.84-8.96 11.52-16.64 20.48-20.48 5.12-2.56 10.24-2.56 15.36-2.56s8.96 1.28 14.080 2.56c8.96 3.84 16.64 11.52 21.76 20.48 2.56 5.12 3.84 10.24 3.84 15.36-1.28 20.48-19.2 37.12-39.68 37.12z" />
<glyph unicode="&#xe60b;" glyph-name="crossroad" data-tags="crossroad_color" d="M747.52 281.6l25.6-32-66.56-83.2h-401.92v166.4h401.92l20.48-25.6zM697.6 779.52l46.080-56.32-46.080-57.6h-367.36v113.92h243.2zM778.24 473.6v-25.6h-486.4l-46.080 57.6 46.080 57.6h486.4v-64z" />
<glyph unicode="&#xe60c;" glyph-name="hospital" data-tags="hospital_color" d="M984.32 819.2v-125.44l-88.32-88.32v124.16zM844.8 217.6h102.4v-76.8h-102.4v76.8zM844.8 294.4h102.4v-76.8h-102.4v76.8zM844.8 371.2h102.4v-76.8h-102.4v76.8zM512 115.2h51.2v-153.6h-51.2v153.6zM537.6 768v-38.4h-51.2v38.4h-38.4v51.2h38.4v38.4h51.2v-38.4h38.4v-51.2zM460.8 115.2h51.2v-153.6h-51.2v153.6zM76.8 217.6h102.4v-76.8h-102.4v76.8zM76.8 294.4h102.4v-76.8h-102.4v76.8zM76.8 371.2h102.4v-76.8h-102.4v76.8zM128 729.6v-124.16l-88.32 88.32v125.44z" />
<glyph unicode="&#xe60d;" glyph-name="hotel" data-tags="hotel_color" d="M921.6 294.4h51.2v-51.2h-51.2v51.2zM921.6 396.8h51.2v-51.2h-51.2v51.2zM883.2 550.4h51.2v-51.2h-51.2v51.2zM896 75.52c16.64 0 30.72-14.080 30.72-30.72s-14.080-30.72-30.72-30.72c-16.64 0-30.72 14.080-30.72 30.72s12.8 30.72 30.72 30.72zM819.2 294.4h51.2v-51.2h-51.2v51.2zM819.2 396.8h51.2v-51.2h-51.2v51.2zM768 467.2v0-275.2h-153.6v271.36c-1.28 55.040-46.080 99.84-102.4 99.84s-101.12-44.8-102.4-99.84v-271.36h-153.6v275.2c1.28 43.52 14.080 85.76 34.56 121.6 44.8 76.8 126.72 128 221.44 128s177.92-51.2 221.44-128c20.48-35.84 33.28-78.080 34.56-121.6zM640 75.52c16.64 0 30.72-14.080 30.72-30.72s-14.080-30.72-30.72-30.72-30.72 14.080-30.72 30.72c-1.28 16.64 12.8 30.72 30.72 30.72zM486.4 332.8h51.2v-64h-51.2v64zM486.4 460.8h51.2v-64h-51.2v64zM384 75.52c16.64 0 30.72-14.080 30.72-30.72s-14.080-30.72-30.72-30.72-30.72 14.080-30.72 30.72c-1.28 16.64 12.8 30.72 30.72 30.72zM153.6 294.4h51.2v-51.2h-51.2v51.2zM153.6 396.8h51.2v-51.2h-51.2v51.2zM128 75.52c16.64 0 30.72-14.080 30.72-30.72s-14.080-30.72-30.72-30.72-30.72 14.080-30.72 30.72c0 16.64 14.080 30.72 30.72 30.72zM89.6 550.4h51.2v-51.2h-51.2v51.2zM51.2 294.4h51.2v-51.2h-51.2v51.2zM51.2 396.8h51.2v-51.2h-51.2v51.2z" />
<glyph unicode="&#xe60e;" glyph-name="metro" data-tags="metro_color" d="M844.8 307.2c28.16 0 51.2 23.040 51.2 51.2v0-204.8c0-28.16-23.040-52.48-52.48-52.48h-663.040c-29.44 0-52.48 23.040-52.48 52.48v204.8c0-28.16 23.040-51.2 51.2-51.2v0h180.48c58.88 0 112.64-24.32 151.040-62.72v0c38.4 38.4 92.16 61.44 151.040 61.44h183.040c0 1.28 0 1.28 0 1.28zM846.080 224c0 21.76-17.92 39.68-39.68 39.68s-39.68-17.92-39.68-39.68c0-21.76 17.92-39.68 39.68-39.68 21.76 1.28 39.68 17.92 39.68 39.68zM257.28 224c0 21.76-17.92 39.68-39.68 39.68s-39.68-17.92-39.68-39.68c0-21.76 17.92-39.68 39.68-39.68s39.68 17.92 39.68 39.68zM819.2 842.24v-28.16c0-14.080-11.52-25.6-25.6-25.6h-563.2c-14.080 0-25.6 11.52-25.6 25.6v28.16c0 14.080 11.52 25.6 25.6 25.6h563.2c14.080 0 25.6-11.52 25.6-25.6z" />
<glyph unicode="&#xe60f;" glyph-name="museum" data-tags="museum_color" d="M947.2 35.84c-34.56 34.56-34.56 90.88 0 125.44 34.56-34.56 34.56-90.88 0-125.44zM742.4 405.76h51.2v-51.2h-51.2v51.2zM640 405.76h51.2v-51.2h-51.2v51.2zM654.080 167.68c0-11.311-9.169-20.48-20.48-20.48s-20.48 9.169-20.48 20.48c0 11.311 9.169 20.48 20.48 20.48s20.48-9.169 20.48-20.48zM563.2 806.4c0 0 0 0 0 0v0 0zM563.2 687.36c0 0 0 0 0 0v0 0zM532.48 167.68c0-11.311-9.169-20.48-20.48-20.48s-20.48 9.169-20.48 20.48c0 11.311 9.169 20.48 20.48 20.48s20.48-9.169 20.48-20.48zM435.2 353.28h51.2v-51.2h-51.2v51.2zM435.2 455.68h51.2v-51.2h-51.2v51.2zM410.88 167.68c0-11.311-9.169-20.48-20.48-20.48s-20.48 9.169-20.48 20.48c0 11.311 9.169 20.48 20.48 20.48s20.48-9.169 20.48-20.48zM332.8 353.28h51.2v-51.2h-51.2v51.2zM332.8 455.68h51.2v-51.2h-51.2v51.2zM230.4 455.68h51.2v-153.6h-51.2v153.6zM76.8 35.84c-34.56 34.56-34.56 90.88 0 125.44 34.56-34.56 34.56-90.88 0-125.44z" />
<glyph unicode="&#xe610;" glyph-name="other" data-tags="other_color" d="M802.56 248.32c0-35.84 29.44-64 65.28-64-35.84 0-65.28-29.44-65.28-64 0 35.84-29.44 64-64 64 34.56 0 64 29.44 64 64zM711.68 802.56c0-24.32 20.48-44.8 44.8-44.8-24.32 0-44.8-20.48-44.8-44.8 0 24.32-20.48 44.8-44.8 44.8 25.6 0 44.8 19.2 44.8 44.8zM193.28 802.56c0-53.76 43.52-97.28 97.28-97.28-53.76 0-97.28-43.52-97.28-97.28 0 53.76-43.52 97.28-97.28 97.28 53.76 0 97.28 43.52 97.28 97.28z" />
<glyph unicode="&#xe611;" glyph-name="park" data-tags="park_color" d="M756.48 326.4c-147.2 0-267.52 120.32-267.52 267.52s119.040 267.52 267.52 267.52c147.2 0 267.52-120.32 267.52-267.52s-120.32-267.52-267.52-267.52zM129.28 881.92c30.72 0 56.32-25.6 56.32-56.32s-25.6-56.32-56.32-56.32-56.32 25.6-56.32 56.32 24.32 56.32 56.32 56.32z" />
<glyph unicode="&#xe612;" glyph-name="profile" data-tags="profile_color" d="M887.040 175.36c0-28.16-14.080-60.16-51.2-60.16-35.84 0-46.080 30.72-49.92 46.080 15.36 23.040 24.32 49.92 24.32 80.64 0 7.68-7.68 15.36-15.36 15.36s-15.36-7.68-15.36-15.36c0-65.28-53.76-119.040-119.040-119.040-39.68 0-74.24 20.48-97.28 49.92l-1.28 1.28c-12.8 19.2-21.76 42.24-21.76 67.84 0 7.68-7.68 15.36-15.36 15.36s-15.36-7.68-15.36-15.36c0-29.44 8.96-56.32 23.040-79.36-6.4-28.16-30.72-47.36-58.88-47.36-34.56 0-62.72 26.88-62.72 60.16v190.72c0 65.28 56.32 117.76 125.44 117.76 1.28 0 2.56 0 3.84 1.28 35.84-21.76 74.24-32 119.040-32 46.080 0 85.76 11.52 117.76 30.72 64-2.56 108.8-51.2 108.8-117.76v-190.72z" />
<glyph unicode="&#xe613;" glyph-name="religion" data-tags="religion_color" d="M328.96 768c40.96 42.24 96 69.12 157.44 75.52 7.68 1.28 16.64 1.28 25.6 1.28s16.64 0 25.6-1.28c129.28-12.8 230.4-121.6 230.4-254.72h-512c0 37.12 7.68 71.68 21.76 102.4 11.52 29.44 29.44 55.040 51.2 76.8z" />
<glyph unicode="&#xe614;" glyph-name="restaurant" data-tags="restaurant_color" d="M881.92 52.48v-2.56h-293.12v2.56c0 0 0 17.92 0 44.8h293.12c0-26.88 0-44.8 0-44.8zM881.92 220.16c0-16.64 0-33.28 0-49.92h-49.92v25.6c0 7.68-1.28 15.36-2.56 23.040l2.56 1.28h49.92zM881.92 355.84c0-38.4 0-88.32 0-134.4h-49.92l-2.56-1.28c-10.24 42.24-48.64 72.96-93.44 72.96s-83.2-30.72-93.44-72.96h-53.76c0 47.36 0 96 0 134.4h293.12zM881.92 405.76c0-12.8 0-30.72 0-51.2h-293.12c0 30.72 0 56.32 0 69.12 29.44 0 29.44-17.92 58.88-17.92s29.44 17.92 58.88 17.92 29.44-17.92 58.88-17.92c29.44 0 29.44 17.92 58.88 17.92 28.16 0 28.16-17.92 57.6-17.92zM734.72 244.48c26.88 0 48.64-21.76 48.64-48.64s-21.76-48.64-48.64-48.64-48.64 21.76-48.64 48.64c0 26.88 21.76 48.64 48.64 48.64zM710.4 896h48.64v-37.12h-48.64v37.12zM710.4 972.8h48.64v-76.8h-48.64v76.8zM637.44 195.84v-25.6h-48.64c0 15.36 0 32 0 49.92h52.48c-2.56-7.68-3.84-15.36-3.84-24.32zM491.52 60.16c0-2.56 0-6.4-1.28-10.24h-96c0 2.56-1.28 6.4-1.28 10.24 0 16.64 7.68 30.72 20.48 39.68 7.68 5.12 17.92 8.96 28.16 8.96 28.16 0 49.92-21.76 49.92-48.64zM245.76 111.36h97.28v-61.44h-97.28v61.44z" />
<glyph unicode="&#xe615;" glyph-name="cemetery" data-tags="rip_color" d="M921.6 28.16c-34.56 34.56-34.56 90.88 0 125.44 34.56-35.84 34.56-90.88 0-125.44zM102.4 28.16c-34.56 34.56-34.56 90.88 0 125.44 34.56-35.84 34.56-90.88 0-125.44z" />
<glyph unicode="&#xe616;" glyph-name="shop" data-tags="shop_color" d="M1024 364.8v-101.12h-99.84v101.12zM1024 263.68c0-26.88-21.76-49.92-49.92-49.92s-49.92 21.76-49.92 49.92h99.84zM821.76 364.8h102.4v-101.12h-102.4v101.12zM821.76 263.68h102.4c0-28.16-23.040-51.2-51.2-51.2s-51.2 21.76-51.2 51.2zM719.36 364.8h102.4v-101.12h-102.4v101.12zM821.76 263.68c0-28.16-23.040-51.2-51.2-51.2s-51.2 23.040-51.2 51.2h102.4zM616.96 364.8h102.4v-101.12h-102.4v101.12zM616.96 263.68h102.4c0-28.16-23.040-51.2-51.2-51.2s-51.2 21.76-51.2 51.2zM514.56 364.8h102.4v-101.12h-102.4v101.12zM514.56 263.68h102.4c0-28.16-23.040-51.2-51.2-51.2s-51.2 21.76-51.2 51.2zM412.16 364.8h102.4v-101.12h-102.4v101.12zM514.56 263.68c0-28.16-23.040-51.2-51.2-51.2s-51.2 23.040-51.2 51.2h102.4zM309.76 364.8h102.4v-101.12h-102.4v101.12zM309.76 263.68h102.4c0-28.16-23.040-51.2-51.2-51.2s-51.2 21.76-51.2 51.2zM207.36 364.8h102.4v-101.12h-102.4v101.12zM309.76 263.68c0-28.16-23.040-51.2-51.2-51.2s-51.2 23.040-51.2 51.2h102.4zM104.96 364.8h102.4v-101.12h-102.4v101.12zM207.36 263.68c0-28.16-23.040-51.2-51.2-51.2s-51.2 23.040-51.2 51.2h102.4zM104.96 364.8v-101.12h-104.96v101.12zM0 263.68h102.4c0-28.16-23.040-51.2-51.2-51.2s-51.2 21.76-51.2 51.2z" />
<glyph unicode="&#xe617;" glyph-name="square" data-tags="sqare_color" d="M896 806.4c14.080 0 25.6-11.52 25.6-25.6s-11.52-25.6-25.6-25.6-25.6 11.52-25.6 25.6 11.52 25.6 25.6 25.6zM768 153.6h142.080v-75.52h-142.080v75.52zM742.4 806.4c14.080 0 25.6-11.52 25.6-25.6s-11.52-25.6-25.6-25.6-25.6 11.52-25.6 25.6 11.52 25.6 25.6 25.6zM588.8 806.4c14.080 0 25.6-11.52 25.6-25.6s-11.52-25.6-25.6-25.6-25.6 11.52-25.6 25.6 11.52 25.6 25.6 25.6zM435.2 806.4c14.080 0 25.6-11.52 25.6-25.6s-11.52-25.6-25.6-25.6-25.6 11.52-25.6 25.6 11.52 25.6 25.6 25.6zM281.6 806.4c14.080 0 25.6-11.52 25.6-25.6s-11.52-25.6-25.6-25.6-25.6 11.52-25.6 25.6 11.52 25.6 25.6 25.6zM115.2 153.6h142.080v-75.52h-142.080v75.52zM128 806.4c14.080 0 25.6-11.52 25.6-25.6s-11.52-25.6-25.6-25.6-25.6 11.52-25.6 25.6 11.52 25.6 25.6 25.6z" />
<glyph unicode="&#xe618;" glyph-name="statue" data-tags="statue_color" d="M741.12 409.6v-76.8l-113.92-76.8v76.8zM741.12 588.8v-89.6l-113.92-76.8v89.6zM627.2 422.4v-89.6l-113.92 76.8h-1.28v89.6h1.28zM448 473.6v-330.24l-64-40.96v307.2zM307.2 947.2v-166.4h-51.2v166.4l25.6 25.6z" />
<glyph unicode="&#xe619;" glyph-name="stadium" data-tags="studium_color" d="M1024 266.24v-128c0-64-96-120.32-240.64-152.32-20.48 61.44 11.52 126.72 72.96 147.2 102.4 33.28 167.68 80.64 167.68 133.12zM1003.52 573.44c11.52 0 20.48-8.96 20.48-20.48s-8.96-19.2-20.48-19.2c-11.52 0-20.48 8.96-20.48 19.2s10.24 20.48 20.48 20.48zM930.56 619.52c11.52 0 20.48-8.96 20.48-20.48s-8.96-20.48-20.48-20.48c-11.52 0-20.48 8.96-20.48 20.48 0 10.24 8.96 20.48 20.48 20.48zM861.44 625.92c0-11.52-8.96-20.48-20.48-20.48s-20.48 8.96-20.48 20.48 8.96 19.2 20.48 19.2 20.48-7.68 20.48-19.2zM634.88 769.28l-122.88-52.48v104.96zM166.4 134.4c60.16-20.48 93.44-87.040 72.96-147.2-144.64 30.72-239.36 87.040-239.36 151.040v128c0-52.48 64-99.84 166.4-131.84zM202.24 627.2c0-11.52-8.96-19.2-20.48-19.2s-20.48 8.96-20.48 19.2c0 11.52 8.96 20.48 20.48 20.48 11.52-1.28 20.48-10.24 20.48-20.48zM113.92 599.040c0-11.52-8.96-20.48-20.48-20.48s-20.48 8.96-20.48 20.48 8.96 19.2 20.48 19.2c11.52 1.28 20.48-7.68 20.48-19.2zM39.68 554.24c0-10.24-8.96-19.2-20.48-19.2-10.24 0-19.2 8.96-19.2 19.2 0 11.52 8.96 20.48 19.2 20.48 11.52 0 20.48-8.96 20.48-20.48z" />
<glyph unicode="&#xe61a;" glyph-name="train" data-tags="train_color" d="M561.92 775.68c-21.76-16.64-49.92-26.88-80.64-26.88h-52.48v23.040c1.28 71.68 60.16 129.28 131.84 129.28h320c25.6 0 46.080 20.48 46.080 46.080 0-72.96-58.88-131.84-131.84-131.84h-69.12c-24.32-24.32-56.32-39.68-93.44-39.68h-70.4zM724.48 206.080l35.84-102.4-49.92-6.4-149.76-17.92-131.84-15.36-131.84 15.36-125.44 15.36-24.32 2.56-48.64 6.4 35.84 102.4v2.56c5.12-1.28 10.24-2.56 14.080-2.56h576zM645.12 334.080c14.080 0 25.6-11.52 25.6-25.6s-11.52-25.6-25.6-25.6c-14.080 0-25.6 11.52-25.6 25.6s11.52 25.6 25.6 25.6zM659.2 449.28v-83.2c-11.52 3.84-24.32 6.4-37.12 6.4h-17.92c10.24 24.32 16.64 49.92 16.64 78.080h38.4zM428.8 496.64c26.88 0 48.64-21.76 48.64-48.64s-21.76-48.64-48.64-48.64c-26.88 0-48.64 21.76-48.64 48.64s21.76 48.64 48.64 48.64zM253.44 371.2v0h-16.64c-14.080 0-26.88-2.56-38.4-6.4v84.48h38.4c0-28.16 5.12-53.76 16.64-78.080zM211.2 334.080c14.080 0 25.6-11.52 25.6-25.6s-11.52-25.6-25.6-25.6c-14.080 0-25.6 11.52-25.6 25.6-1.28 14.080 10.24 25.6 25.6 25.6zM736 257.28h24.32c0-28.16-23.040-51.2-51.2-51.2h-561.92c-5.12 0-10.24 1.28-14.080 2.56-21.76 6.4-35.84 25.6-35.84 48.64h638.72z" />
</font>
</defs>
</svg>
